<svg width="24" height="26" viewBox="0 0 24 26" fill="none" xmlns="http://www.w3.org/2000/svg">
<path fill-rule="evenodd" clip-rule="evenodd" d="M19.6999 21.5736C19.5472 21.7009 19.3205 21.673 19.1978 21.5165L18.752 20.9475C18.6294 20.791 18.6574 20.5652 18.8096 20.4373C20.3858 19.1128 21.5404 17.3523 22.1258 15.373C22.7452 13.2784 22.6965 11.0428 21.9864 8.97718C21.2763 6.91155 19.9401 5.11858 18.1637 3.84763C16.3873 2.57669 14.2589 1.89096 12.0746 1.88583C9.89035 1.8807 7.75879 2.55643 5.97639 3.81901C4.194 5.0816 2.8494 6.86828 2.12961 8.93055C1.40982 10.9928 1.35062 13.2281 1.96025 15.3256C2.53635 17.3077 3.68264 19.0736 5.25263 20.4054C5.40424 20.5341 5.43111 20.76 5.30776 20.9159L4.85929 21.4829C4.73594 21.6388 4.50912 21.6656 4.35697 21.5376C2.55201 20.0192 1.23454 17.9984 0.57473 15.7283C-0.118618 13.3428 -0.0512931 10.8005 0.767341 8.45508C1.58597 6.10962 3.11522 4.07759 5.14237 2.64162C7.16952 1.20566 9.5938 0.437144 12.078 0.442977C14.5622 0.448811 16.9829 1.2287 19.0033 2.67417C21.0236 4.11964 22.5433 6.15883 23.3509 8.50811C24.1585 10.8574 24.2139 13.4 23.5094 15.7822C22.8389 18.0492 21.512 20.0637 19.6999 21.5736ZM17.3132 18.3693C17.1612 18.4975 16.9346 18.4676 16.8132 18.3101L16.4554 17.8458C16.3341 17.6883 16.3641 17.4629 16.515 17.3335C17.5021 16.4868 18.2301 15.375 18.6104 14.1262C19.0257 12.7624 19.0057 11.3031 18.5532 9.95121C18.1006 8.59931 17.238 7.42206 16.0852 6.5832C14.9325 5.74435 13.547 5.28558 12.1215 5.27072C10.6959 5.25586 9.30115 5.68565 8.1312 6.5003C6.96125 7.31495 6.07426 8.47396 5.59362 9.81613C5.11297 11.1583 5.06255 12.6169 5.44938 13.9891C5.80358 15.2455 6.50826 16.3722 7.47747 17.2393C7.62565 17.3719 7.65095 17.5978 7.52635 17.7527L7.15895 18.2095C7.03434 18.3644 6.80714 18.3896 6.65785 18.2583C5.47759 17.2201 4.62007 15.8613 4.19217 14.3435C3.73166 12.71 3.79168 10.9736 4.36388 9.37575C4.93608 7.77793 5.992 6.39817 7.3848 5.42835C8.77759 4.45854 10.438 3.94689 12.1351 3.96458C13.8322 3.98227 15.4816 4.52841 16.8538 5.52705C18.2261 6.52568 19.253 7.92716 19.7918 9.53655C20.3306 11.1459 20.3544 12.8832 19.8599 14.5068C19.4005 16.0153 18.5148 17.356 17.3132 18.3693ZM14.8706 15.8853C14.9899 16.0443 15.2166 16.0773 15.3667 15.9469C16.0662 15.3394 16.5873 14.5496 16.8697 13.6623C17.1886 12.6603 17.1873 11.5839 16.866 10.5827C16.5447 9.58155 15.9194 8.70539 15.077 8.07611C14.2347 7.44683 13.2171 7.09571 12.1659 7.0716C11.1147 7.04749 10.0822 7.35158 9.21184 7.94157C8.3415 8.53157 7.67667 9.37813 7.30981 10.3635C6.94296 11.3489 6.89232 12.4241 7.16494 13.4397C7.40636 14.339 7.89067 15.1518 8.5616 15.7908C8.70557 15.928 8.93349 15.9053 9.06003 15.752L9.54954 15.1587C9.67608 15.0053 9.65282 14.7796 9.51298 14.6383C9.07877 14.1994 8.7643 13.6538 8.60317 13.0536C8.41082 12.337 8.44655 11.5784 8.70539 10.8831C8.96424 10.1878 9.43333 9.59049 10.0474 9.1742C10.6615 8.75791 11.3901 8.54335 12.1318 8.56037C12.8735 8.57738 13.5914 8.82512 14.1858 9.26913C14.7802 9.71314 15.2214 10.3313 15.4481 11.0378C15.6748 11.7442 15.6757 12.5037 15.4507 13.2106C15.2622 13.8028 14.923 14.3335 14.4692 14.752C14.323 14.8867 14.2894 15.1112 14.4088 15.2702L14.8706 15.8853ZM12.2172 16.4766L19.1347 24.3547C19.3616 24.6132 19.1781 25.0186 18.8341 25.0186H5.2452C4.90458 25.0186 4.71982 24.6201 4.93995 24.3601L11.6114 16.482C11.7693 16.2955 12.056 16.293 12.2172 16.4766Z" fill="white"/>
</svg>
