<svg width="18" height="18" viewBox="0 0 18 18" fill="none" xmlns="http://www.w3.org/2000/svg">
<path d="M14.3485 17.866C13.5759 17.866 12.4907 17.5866 10.8657 16.6787C8.88955 15.5705 7.36107 14.5474 5.39565 12.5871C3.50068 10.6934 2.57853 9.46724 1.2879 7.11872C-0.170131 4.46702 0.0784155 3.07706 0.35625 2.483C0.687117 1.77298 1.1755 1.34832 1.80676 0.926818C2.16532 0.6919 2.54475 0.490523 2.94026 0.32524C2.97984 0.308222 3.01665 0.291995 3.0495 0.277351C3.24541 0.189094 3.54224 0.0557174 3.91822 0.198196C4.16915 0.292391 4.39315 0.485133 4.74381 0.831436C5.46293 1.54066 6.44564 3.1202 6.80817 3.89592C7.05157 4.41874 7.21265 4.76386 7.21305 5.15092C7.21305 5.60409 6.98508 5.95355 6.70844 6.33073C6.65659 6.40157 6.60514 6.46925 6.55527 6.53495C6.25409 6.93072 6.18799 7.0451 6.23153 7.24932C6.31979 7.65974 6.97796 8.8815 8.05961 9.96078C9.14126 11.0401 10.3278 11.6567 10.7398 11.7445C10.9527 11.79 11.0695 11.7212 11.4779 11.4093C11.5365 11.3646 11.5967 11.3183 11.6596 11.272C12.0815 10.9581 12.4147 10.7361 12.8572 10.7361H12.8596C13.2447 10.7361 13.5743 10.9031 14.1205 11.1786C14.8329 11.5379 16.4599 12.508 17.1735 13.2279C17.5206 13.5778 17.7141 13.801 17.8087 14.0515C17.9512 14.4287 17.817 14.7243 17.7296 14.9222C17.7149 14.9551 17.6987 14.9911 17.6817 15.031C17.5151 15.4259 17.3125 15.8045 17.0766 16.1622C16.6558 16.7915 16.2296 17.2787 15.518 17.6099C15.1526 17.7828 14.7527 17.8703 14.3485 17.866Z" fill="white"/>
</svg>
