<svg width="31" height="25" viewBox="0 0 31 25" fill="none" xmlns="http://www.w3.org/2000/svg">
<path d="M15.4271 23.9997C1.76922 24.0698 -0.857557 10.4295 2.07597 1.67455C2.60717 3.58827 12.7726 4.55963 15.3901 1.39105C17.9847 4.4678 27.6971 3.57233 28.7345 2.02474C33.3571 18.8693 21.789 23.6933 15.4271 23.9997Z" fill="#E23B43" stroke="white" stroke-width="0.635192"/>
<path d="M29.6252 8.84381H1.23513C1.00675 18.1297 7.74976 24 15.746 24C26.2469 24 30.5913 13.9878 29.6252 8.84381Z" fill="#107AF9" stroke="white" stroke-width="0.508154"/>
<path d="M6.884 13.7162V13.7384H8.12882V13.7162C8.12882 13.1249 8.58674 12.6892 9.20915 12.6892C9.80489 12.6892 10.2272 13.0715 10.2272 13.5517C10.2272 13.9962 10.0272 14.3208 9.37809 14.9699L6.95958 17.2995V18.202H11.6232V17.135H8.729V17.1083L10.2939 15.6012C11.0008 14.8987 11.5343 14.2986 11.5343 13.4983C11.5343 12.4269 10.6051 11.6444 9.25361 11.6444C7.85318 11.6444 6.884 12.5024 6.884 13.7162ZM14.9709 18.3442C16.5136 18.3442 17.5717 17.5796 17.5717 16.4681C17.5717 15.6234 16.9626 14.9699 16.0646 14.8187V14.792C16.8115 14.6142 17.3094 14.0407 17.3094 13.3427C17.3094 12.3557 16.3491 11.6444 14.9709 11.6444C13.5972 11.6444 12.628 12.3602 12.628 13.3383C12.628 14.0451 13.1303 14.6186 13.8772 14.792V14.8187C12.9836 14.9654 12.3701 15.619 12.3701 16.4637C12.3701 17.5751 13.4149 18.3442 14.9709 18.3442ZM14.9709 17.3662C14.264 17.3662 13.7705 16.9438 13.7705 16.3658C13.7705 15.7879 14.264 15.3655 14.9709 15.3655C15.6778 15.3655 16.1668 15.7879 16.1668 16.3658C16.1668 16.9438 15.6778 17.3662 14.9709 17.3662ZM14.9709 14.3875C14.3752 14.3875 13.9573 14.014 13.9573 13.5028C13.9573 12.9915 14.3752 12.6136 14.9709 12.6136C15.5622 12.6136 15.9846 12.987 15.9846 13.5028C15.9846 14.014 15.5622 14.3875 14.9709 14.3875ZM20.8794 18.3442C22.4932 18.3442 23.4713 17.0505 23.4713 14.9788C23.4713 12.907 22.4843 11.64 20.8794 11.64C19.2744 11.64 18.283 12.9115 18.283 14.9832C18.283 17.0594 19.2656 18.3442 20.8794 18.3442ZM20.8794 17.2683C20.1147 17.2683 19.6479 16.4414 19.6479 14.9832C19.6479 13.5383 20.1236 12.7158 20.8794 12.7158C21.6396 12.7158 22.1064 13.5339 22.1064 14.9832C22.1064 16.4459 21.6441 17.2683 20.8794 17.2683Z" fill="white"/>
</svg>
