<svg width="90" height="90" viewBox="0 0 90 90" fill="none" xmlns="http://www.w3.org/2000/svg">
<path d="M13.8889 31.3741V21.5223C13.8889 16.8585 17.6696 13.0778 22.3334 13.0778H31.7161" stroke="white" stroke-width="3.33333" stroke-linecap="round"/>
<path d="M13.8889 58.5841V68.436C13.8889 73.0997 17.6696 76.8804 22.3334 76.8804H31.7161" stroke="white" stroke-width="3.33333" stroke-linecap="round"/>
<path d="M77.2222 31.3741V21.5223C77.2222 16.8585 73.4415 13.0778 68.7778 13.0778H59.3951" stroke="white" stroke-width="3.33333" stroke-linecap="round"/>
<path d="M77.2222 58.5841V68.436C77.2222 73.0997 73.4415 76.8804 68.7778 76.8804H59.3951" stroke="white" stroke-width="3.33333" stroke-linecap="round"/>
<path d="M56.1111 58.4109L54.7012 59.0375C48.8787 61.6253 42.2324 61.6253 36.4099 59.0375L35 58.4109" stroke="white" stroke-width="3.33333" stroke-linecap="round"/>
<path d="M46.9506 34.9542V46.5265C46.9506 48.2991 45.7104 49.83 43.9763 50.1979L42.5062 50.5097" stroke="white" stroke-width="3.33333" stroke-linecap="round"/>
<path d="M32.1852 34.9542L32.1852 40.5097" stroke="white" stroke-width="3.33333" stroke-linecap="round"/>
<path d="M59.3951 34.9542L59.3951 40.5097" stroke="white" stroke-width="3.33333" stroke-linecap="round"/>
</svg>
