<svg width="25" height="25" viewBox="0 0 25 25" fill="none" xmlns="http://www.w3.org/2000/svg">
<path d="M12.425 3.34224C7.66205 3.34224 3.80002 7.20427 3.80002 11.9672C3.80002 16.7302 7.66205 20.5922 12.425 20.5922C17.188 20.5922 21.05 16.7302 21.05 11.9672C21.05 7.20427 17.188 3.34224 12.425 3.34224Z" stroke="#656565" stroke-width="1.74404" stroke-miterlimit="10"/>
<path d="M11.1125 10.6545H12.6125V16.092" stroke="#656565" stroke-width="1.74404" stroke-linecap="round" stroke-linejoin="round"/>
<path d="M10.55 16.2798H14.675" stroke="#656565" stroke-width="1.74404" stroke-miterlimit="10" stroke-linecap="round"/>
<path d="M12.425 6.43592C12.184 6.43592 11.9483 6.5074 11.7479 6.64131C11.5475 6.77523 11.3913 6.96557 11.299 7.18827C11.2068 7.41097 11.1827 7.65602 11.2297 7.89243C11.2767 8.12885 11.3928 8.34601 11.5632 8.51645C11.7337 8.6869 11.9508 8.80297 12.1873 8.85C12.4237 8.89702 12.6687 8.87289 12.8914 8.78065C13.1141 8.6884 13.3045 8.53219 13.4384 8.33177C13.5723 8.13135 13.6438 7.89571 13.6438 7.65467C13.6438 7.33143 13.5154 7.02144 13.2868 6.79288C13.0582 6.56432 12.7483 6.43592 12.425 6.43592Z" fill="#656565"/>
</svg>
