<svg width="38" height="40" viewBox="0 0 38 40" fill="none" xmlns="http://www.w3.org/2000/svg">
<path d="M18.1159 14.0236L9.83869 2.28288C9.64341 2.00588 9.22734 2.02272 9.05508 2.31459L2.1561 14.0036C1.92727 14.3913 2.32568 14.8464 2.74023 14.6708L9.25526 11.9112C9.36273 11.8657 9.48336 11.862 9.59337 11.9011L17.5783 14.7326C18.0073 14.8847 18.3781 14.3956 18.1159 14.0236Z" fill="#656565" stroke="#656565" stroke-width="2.48988"/>
<path d="M9.82532 10.2798V39.6989" stroke="#656565" stroke-width="5.60223"/>
<path d="M9.82526 39.4373V29.6884C9.82526 25.9068 12.8908 22.8412 16.6724 22.8412L34.6618 22.8412" stroke="white" stroke-width="5.60223"/>
<path d="M24.6686 31.2553L36.4093 22.9781C36.6863 22.7828 36.6695 22.3667 36.3776 22.1945L24.6886 15.2955C24.3009 15.0667 23.8458 15.4651 24.0214 15.8796L26.781 22.3947C26.8265 22.5021 26.8302 22.6228 26.7911 22.7328L23.9596 30.7177C23.8075 31.1467 24.2966 31.5175 24.6686 31.2553Z" fill="white" stroke="white" stroke-width="2.48988"/>
</svg>
