<svg width="27" height="27" viewBox="0 0 27 27" fill="none" xmlns="http://www.w3.org/2000/svg">
<path d="M10.8668 23.4604H16.6305M19.5124 11.3877V12.9974C19.5124 16.5387 16.9187 19.4362 13.7487 19.4362C10.5787 19.4362 7.98499 16.5387 7.98499 12.9974V11.3877M13.7487 19.4362V23.4604" stroke="black" stroke-width="1.60969" stroke-linecap="round" stroke-linejoin="round"/>
<path d="M13.7488 17.0215C13.3094 17.0203 12.8748 16.9123 12.4706 16.7041C12.0664 16.4958 11.701 16.1915 11.396 15.8092C10.7715 15.0478 10.4209 14.0192 10.4203 12.947V7.36337C10.4186 6.83433 10.5035 6.3101 10.6702 5.82093C10.8369 5.33176 11.082 4.88731 11.3914 4.51322C11.7008 4.13912 12.0684 3.84278 12.473 3.64128C12.8776 3.43977 13.3112 3.33709 13.7488 3.33915C15.6152 3.33915 17.0773 5.10679 17.0773 7.36337V12.947C17.0773 15.1935 15.584 17.0215 13.7488 17.0215Z" fill="black"/>
</svg>
