<svg width="17" height="15" viewBox="0 0 17 15" fill="none" xmlns="http://www.w3.org/2000/svg">
<path d="M0.2 14.1637C0.2 14.6056 0.558172 14.9637 1 14.9637C1.44183 14.9637 1.8 14.6056 1.8 14.1637H0.2ZM15.8643 7.40211C16.1767 7.08969 16.1767 6.58316 15.8643 6.27074L10.7731 1.17957C10.4607 0.867152 9.95416 0.867152 9.64174 1.17957C9.32932 1.49199 9.32932 1.99852 9.64174 2.31094L14.1672 6.83643L9.64174 11.3619C9.32932 11.6743 9.32932 12.1809 9.64174 12.4933C9.95416 12.8057 10.4607 12.8057 10.7731 12.4933L15.8643 7.40211ZM1.8 14.1637V11.2364H0.2V14.1637H1.8ZM5.4 7.63643H15.2986V6.03643H5.4V7.63643ZM1.8 11.2364C1.8 9.2482 3.41177 7.63643 5.4 7.63643V6.03643C2.52812 6.03643 0.2 8.36454 0.2 11.2364H1.8Z" fill="#80CEFF"/>
</svg>
