<svg width="25" height="16" viewBox="0 0 25 16" fill="none" xmlns="http://www.w3.org/2000/svg">
<path d="M23.6687 6.38524L14.0891 0.653817C13.8521 0.509618 13.5808 0.431708 13.3034 0.428229C13.026 0.424749 12.7527 0.495827 12.5122 0.634036C12.2512 0.786014 12.0351 1.00435 11.8858 1.26688C11.7365 1.52941 11.6593 1.82677 11.6621 2.12877V6.13823L2.49591 0.652295C2.25892 0.508096 1.98755 0.430187 1.71016 0.426707C1.43277 0.423227 1.15954 0.494305 0.919004 0.632514C0.658016 0.784492 0.441896 1.00283 0.292593 1.26536C0.14329 1.52789 0.0661223 1.82525 0.0689262 2.12725V13.3365C0.0660325 13.6386 0.143158 13.9361 0.292465 14.1987C0.441773 14.4613 0.657941 14.6797 0.919004 14.8317C1.15954 14.97 1.43277 15.041 1.71016 15.0375C1.98755 15.0341 2.25892 14.9562 2.49591 14.812L11.6621 9.32349V13.3345C11.6589 13.6369 11.7358 13.9348 11.8852 14.1978C12.0345 14.4608 12.2508 14.6796 12.5122 14.8317C12.7527 14.97 13.026 15.041 13.3034 15.0375C13.5808 15.0341 13.8521 14.9562 14.0891 14.812L23.6687 9.08053C23.8965 8.93788 24.0842 8.7397 24.2144 8.50459C24.3445 8.26948 24.4128 8.00517 24.4128 7.73644C24.4128 7.46771 24.3445 7.20339 24.2144 6.96829C24.0842 6.73318 23.8965 6.535 23.6687 6.39234V6.38524Z" fill="white"/>
</svg>
