<svg width="16" height="24" viewBox="0 0 16 24" fill="none" xmlns="http://www.w3.org/2000/svg">
<path d="M4.98788 23.466H1.78741C1.50447 23.466 1.23312 23.3536 1.03305 23.1535C0.832979 22.9534 0.720581 22.6821 0.720581 22.3991V1.06263C0.720581 0.779691 0.832979 0.50834 1.03305 0.308271C1.23312 0.108203 1.50447 -0.00419474 1.78741 -0.00419474H4.98788C5.27082 -0.00419474 5.54218 0.108203 5.74224 0.308271C5.94231 0.50834 6.05471 0.779691 6.05471 1.06263V22.3991C6.05471 22.6821 5.94231 22.9534 5.74224 23.1535C5.54218 23.3536 5.27082 23.466 4.98788 23.466ZM14.5893 23.466H11.3888C11.1059 23.466 10.8345 23.3536 10.6345 23.1535C10.4344 22.9534 10.322 22.6821 10.322 22.3991V1.06263C10.322 0.779691 10.4344 0.50834 10.6345 0.308271C10.8345 0.108203 11.1059 -0.00419474 11.3888 -0.00419474H14.5893C14.8723 -0.00419474 15.1436 0.108203 15.3437 0.308271C15.5437 0.50834 15.6561 0.779691 15.6561 1.06263V22.3991C15.6561 22.6821 15.5437 22.9534 15.3437 23.1535C15.1436 23.3536 14.8723 23.466 14.5893 23.466Z" fill="white"/>
</svg>
