<svg width="26" height="16" viewBox="0 0 26 16" fill="none" xmlns="http://www.w3.org/2000/svg">
<path d="M1.70762 9.07637L11.2872 14.8078C11.5242 14.952 11.7956 15.0299 12.073 15.0334C12.3504 15.0369 12.6236 14.9658 12.8641 14.8276C13.1251 14.6756 13.3412 14.4573 13.4905 14.1947C13.6398 13.9322 13.717 13.6348 13.7142 13.3328V9.32338L22.8804 14.8093C23.1174 14.9535 23.3888 15.0314 23.6662 15.0349C23.9436 15.0384 24.2168 14.9673 24.4573 14.8291C24.7183 14.6771 24.9344 14.4588 25.0837 14.1963C25.2331 13.9337 25.3102 13.6364 25.3074 13.3344V2.12512C25.3103 1.82303 25.2332 1.52556 25.0839 1.26294C24.9346 1.00031 24.7184 0.781895 24.4573 0.629873C24.2168 0.491665 23.9436 0.420588 23.6662 0.424067C23.3888 0.427547 23.1174 0.505456 22.8804 0.649655L13.7142 6.13813V2.12715C13.7175 1.82472 13.6405 1.52683 13.4912 1.26382C13.3419 1.00081 13.1255 0.782065 12.8641 0.629873C12.6236 0.491665 12.3504 0.420588 12.073 0.424067C11.7956 0.427547 11.5242 0.505456 11.2872 0.649655L1.70762 6.38108C1.47989 6.52374 1.29214 6.72192 1.16199 6.95703C1.03184 7.19213 0.963556 7.45645 0.963556 7.72518C0.963556 7.9939 1.03184 8.25822 1.16199 8.49333C1.29214 8.72844 1.47989 8.92662 1.70762 9.06927V9.07637Z" fill="white"/>
</svg>
