<svg width="28" height="19" viewBox="0 0 28 19" fill="none" xmlns="http://www.w3.org/2000/svg">
<path d="M22.0174 4.95175V3.34483C22.0174 2.39614 21.2483 1.62707 20.2997 1.62707H3.08897C2.14028 1.62707 1.37122 2.39614 1.37122 3.34483V15.2049C1.37122 16.1536 2.14028 16.9226 3.08897 16.9226H14.5466" stroke="white" stroke-width="1.71775"/>
<rect x="3.32373" y="3.34939" width="16.7409" height="11.8516" rx="1.03065" fill="#6A6A6A"/>
<path d="M24.03 6.8773L24.03 6.8773C24.6293 7.52438 24.9142 8.38922 24.8469 9.29894C24.7262 10.934 23.5528 12.3673 22.061 12.5596C23.2635 12.6179 24.4277 12.9832 25.3721 13.6122L25.3722 13.6123C26.5418 14.392 27.2978 15.5147 27.5392 16.8539C27.6104 17.248 27.5168 17.656 27.2589 17.9643M24.03 6.8773L15.9003 16.8542C15.8291 17.2483 15.9228 17.6564 16.1808 17.9647C16.2986 18.1058 16.4464 18.2189 16.6135 18.2957C16.7797 18.3721 16.9607 18.4107 17.1436 18.4088H26.296C26.4789 18.4107 26.6601 18.372 26.8263 18.2955C26.9933 18.2186 27.1411 18.1055 27.2589 17.9643M24.03 6.8773C23.438 6.23815 22.6142 5.89151 21.7198 5.89151C20.8231 5.89151 19.9964 6.23504 19.4056 6.87185L19.4056 6.87187C18.808 7.51622 18.5262 8.38318 18.5924 9.29778L18.5924 9.29792C18.7112 10.934 19.8868 12.3673 21.3785 12.5596M24.03 6.8773L21.3785 12.5596M27.2589 17.9643C27.259 17.9642 27.2591 17.9641 27.2592 17.964L26.928 17.6877L27.2588 17.9645C27.2588 17.9644 27.2589 17.9644 27.2589 17.9643ZM21.3785 12.5596C20.1761 12.6179 19.0119 12.9829 18.0674 13.6123L18.0673 13.6124C16.8979 14.3923 16.1418 15.5148 15.9004 16.8539L21.3785 12.5596Z" fill="white" stroke="#303032" stroke-width="0.862634"/>
</svg>
