<svg width="27" height="27" viewBox="0 0 27 27" fill="none" xmlns="http://www.w3.org/2000/svg">
<path d="M12.2903 21.8505C12.0331 21.8505 11.7828 21.768 11.576 21.6151C11.5645 21.6071 11.5534 21.5985 11.5428 21.5894L6.94612 17.8263H3.437C3.11682 17.8263 2.80974 17.6991 2.58334 17.4727C2.35693 17.2463 2.22974 16.9392 2.22974 16.619V10.9851C2.22974 10.6649 2.35693 10.3578 2.58334 10.1314C2.80974 9.90503 3.11682 9.77784 3.437 9.77784H6.94562L11.5418 6.01469C11.5524 6.00559 11.5635 5.99702 11.575 5.98904C11.7548 5.8568 11.9677 5.77699 12.1901 5.75847C12.4125 5.73995 12.6357 5.78345 12.8349 5.88414C13.0341 5.98483 13.2015 6.13876 13.3185 6.32884C13.4354 6.51891 13.4974 6.7377 13.4976 6.96089V20.6432C13.4976 20.9634 13.3704 21.2705 13.144 21.4969C12.9176 21.7233 12.6105 21.8505 12.2903 21.8505ZM16.7169 17.8263C16.5796 17.8263 16.4445 17.7911 16.3246 17.7241C16.2047 17.6571 16.104 17.5606 16.0319 17.4437C15.9599 17.3267 15.9189 17.1933 15.913 17.0561C15.9071 16.9189 15.9364 16.7825 15.9981 16.6598C16.4755 15.7106 16.7174 14.7483 16.7174 13.8021C16.7174 12.8272 16.483 11.8936 16.0006 10.9484C15.9082 10.7588 15.8939 10.5405 15.9608 10.3405C16.0277 10.1404 16.1704 9.97464 16.3583 9.87879C16.5462 9.78293 16.7642 9.76466 16.9654 9.82791C17.1666 9.89116 17.335 10.0309 17.4343 10.217C18.0344 11.3936 18.3266 12.5666 18.3266 13.8021C18.3266 15.0023 18.0248 16.207 17.4363 17.3831C17.3692 17.5164 17.2664 17.6284 17.1394 17.7067C17.0124 17.7849 16.8661 17.8263 16.7169 17.8263Z" fill="white"/>
<path d="M19.1316 20.2411C18.9903 20.2411 18.8515 20.204 18.7291 20.1333C18.6067 20.0627 18.5051 19.9611 18.4344 19.8388C18.3638 19.7164 18.3265 19.5776 18.3265 19.4363C18.3265 19.295 18.3637 19.1562 18.4344 19.0338C19.3856 17.3784 19.9364 15.991 19.9364 13.8023C19.9364 11.5805 19.3866 10.2027 18.4364 8.57388C18.3322 8.38969 18.3047 8.17186 18.3599 7.96756C18.4151 7.76326 18.5486 7.58893 18.7314 7.48231C18.9142 7.37569 19.1317 7.34537 19.3367 7.3979C19.5417 7.45044 19.7177 7.5816 19.8267 7.763C20.8881 9.58245 21.5461 11.2274 21.5461 13.8023C21.5461 16.3391 20.8891 17.9921 19.8293 19.8387C19.7586 19.9611 19.6569 20.0628 19.5344 20.1334C19.4119 20.2041 19.273 20.2412 19.1316 20.2411Z" fill="white"/>
<path d="M21.5462 22.6555C21.4012 22.6554 21.259 22.6161 21.1345 22.5419C21.01 22.4677 20.9079 22.3612 20.8389 22.2337C20.7699 22.1063 20.7367 21.9625 20.7426 21.8177C20.7485 21.6729 20.7934 21.5324 20.8726 21.411C22.2428 19.3088 23.1558 17.2107 23.1558 13.8022C23.1558 10.4571 22.2413 8.33831 20.8676 6.18686C20.8107 6.09768 20.7719 5.99817 20.7535 5.89401C20.7351 5.78986 20.7374 5.68309 20.7602 5.57982C20.7831 5.47654 20.826 5.37877 20.8866 5.2921C20.9473 5.20543 21.0244 5.13154 21.1135 5.07466C21.2027 5.01779 21.3022 4.97903 21.4064 4.96061C21.5105 4.94219 21.6173 4.94447 21.7206 4.96731C21.8239 4.99015 21.9216 5.03311 22.0083 5.09374C22.095 5.15436 22.1689 5.23147 22.2257 5.32065C23.7499 7.71003 24.7655 10.0667 24.7655 13.8022C24.7655 17.0593 24.0281 19.5181 22.2202 22.2903C22.1471 22.4024 22.0472 22.4945 21.9295 22.5583C21.8118 22.6221 21.68 22.6555 21.5462 22.6555Z" fill="white"/>
</svg>
