<svg width="26" height="27" viewBox="0 0 26 27" fill="none" xmlns="http://www.w3.org/2000/svg">
<g clip-path="url(#clip0_105_6)">
<path d="M23.4629 20.2606C23.2376 20.2605 23.0148 20.213 22.809 20.1213C22.7611 20.1 22.7155 20.0741 22.6727 20.0438L18.5121 17.1152C18.3011 16.9667 18.129 16.7696 18.0101 16.5406C17.8912 16.3115 17.8291 16.0573 17.829 15.7993V11.8052C17.8291 11.5472 17.8912 11.293 18.0101 11.0639C18.129 10.8349 18.3011 10.6378 18.5121 10.4893L22.6727 7.56068C22.7155 7.53042 22.7611 7.50447 22.809 7.48321C23.0541 7.37425 23.3225 7.32826 23.5899 7.34941C23.8573 7.37056 24.1151 7.45818 24.34 7.60431C24.5649 7.75045 24.7497 7.95046 24.8777 8.18618C25.0056 8.4219 25.0726 8.68586 25.0726 8.95407V18.6504C25.0726 19.0773 24.903 19.4868 24.6012 19.7887C24.2993 20.0905 23.8899 20.2601 23.4629 20.2601V20.2606ZM13.6036 21.0458H4.3479C3.44099 21.0449 2.57149 20.6842 1.9302 20.043C1.28892 19.4017 0.928239 18.5322 0.927307 17.6253V9.97924C0.928239 9.07233 1.28892 8.20283 1.9302 7.56154C2.57149 6.92026 3.44099 6.55958 4.3479 6.55865H13.6278C14.5282 6.55971 15.3915 6.91789 16.0282 7.55462C16.6649 8.19134 17.0231 9.05463 17.0242 9.95509V17.6253C17.0233 18.5322 16.6626 19.4017 16.0213 20.043C15.38 20.6842 14.5105 21.0449 13.6036 21.0458Z" fill="white"/>
</g>
<defs>
<clipPath id="clip0_105_6">
<rect width="25.755" height="25.755" fill="white" transform="translate(0.122437 0.92477)"/>
</clipPath>
</defs>
</svg>
